<svg xmlns="http://www.w3.org/2000/svg" viewBox="0 0 739.250 160.250" width="739.250" height="160.250">
  <path d="M 406.250 109.750 L 402.000 110.250 L 396.250 110.250 L 391.250 110.500 L 386.250 111.000 L 381.250 111.000 L 375.250 111.750 L 371.000 112.000 L 366.250 112.000 L 361.250 112.250 L 353.250 113.000 L 349.000 113.000 L 345.000 113.500 L 340.750 113.750 L 336.500 113.750 L 332.000 114.000 L 325.750 114.750 L 322.500 115.000 L 318.000 115.000 L 315.250 115.250 L 312.500 115.750 L 308.750 116.000 L 305.000 116.000 L 301.250 116.250 L 299.000 116.750 L 294.750 116.750 L 290.750 117.000 L 288.000 117.250 L 285.250 117.750 L 282.250 118.000 L 278.000 118.000 L 275.500 118.500 L 272.500 118.750 L 268.500 118.750 L 265.000 119.000 L 261.500 119.250 L 258.500 119.750 L 251.000 120.000 L 248.750 120.250 L 246.750 120.750 L 243.500 120.750 L 240.750 121.000 L 236.000 121.750 L 233.000 121.750 L 230.000 122.250 L 227.000 122.250 L 224.500 122.750 L 218.750 123.000 L 212.250 124.000 L 210.000 124.000 L 208.000 124.500 L 205.500 124.750 L 203.000 124.750 L 200.500 125.000 L 198.000 125.500 L 193.000 125.750 L 190.750 126.250 L 188.000 126.250 L 186.000 126.750 L 183.750 127.000 L 181.250 127.000 L 180.000 127.500 L 177.500 127.750 L 175.500 127.750 L 173.500 128.250 L 169.500 128.500 L 167.250 128.750 L 164.000 129.500 L 162.250 129.750 L 158.250 130.000 L 155.250 130.750 L 153.000 130.750 L 151.000 131.000 L 149.000 131.250 L 145.500 132.000 L 143.000 132.000 L 141.250 132.250 L 139.750 132.750 L 137.500 132.750 L 133.500 133.500 L 131.250 133.750 L 129.000 134.000 L 126.500 134.000 L 124.500 134.250 L 122.500 134.750 L 120.500 135.000 L 115.500 135.250 L 113.750 135.750 L 109.000 135.750 L 108.500 136.250 L 108.750 137.000 L 109.750 137.250 L 111.500 137.750 L 114.500 138.000 L 116.750 138.750 L 118.250 138.750 L 119.750 139.250 L 121.250 139.500 L 126.250 140.000 L 129.250 140.750 L 131.250 141.000 L 133.250 141.000 L 136.250 141.750 L 141.250 142.000 L 145.000 142.750 L 149.250 143.000 L 164.750 143.250 L 167.750 143.250 L 173.000 143.000 L 178.000 142.750 L 180.000 142.250 L 186.000 142.000 L 188.000 141.500 L 192.500 141.250 L 196.000 140.500 L 198.000 140.500 L 199.500 140.250 L 201.000 139.750 L 202.500 139.500 L 204.000 139.500 L 205.500 139.250 L 208.250 138.750 L 210.750 138.000 L 212.250 137.750 L 214.000 137.750 L 215.500 137.500 L 216.750 137.000 L 218.000 136.750 L 222.500 136.000 L 225.750 135.750 L 228.250 135.000 L 231.250 134.750 L 234.000 134.000 L 235.500 133.750 L 237.250 133.750 L 239.500 133.000 L 242.500 132.750 L 244.000 132.500 L 245.250 132.000 L 246.750 132.000 L 248.000 131.750 L 250.500 131.000 L 252.000 130.750 L 253.500 130.750 L 258.750 129.500 L 263.250 128.750 L 264.750 128.750 L 266.250 128.250 L 267.750 128.000 L 269.500 127.750 L 271.250 127.750 L 272.750 127.500 L 274.250 127.000 L 277.500 126.750 L 280.250 126.000 L 282.250 126.000 L 287.000 125.000 L 290.500 124.750 L 293.750 124.000 L 295.500 124.000 L 297.250 123.750 L 298.750 123.500 L 300.250 123.000 L 303.500 122.750 L 306.750 122.000 L 308.500 121.750 L 310.750 121.750 L 312.500 121.500 L 315.750 120.750 L 317.500 120.500 L 319.250 120.500 L 321.000 120.000 L 322.750 119.750 L 325.250 119.750 L 327.000 119.500 L 328.500 119.000 L 333.250 118.750 L 336.500 118.000 L 339.000 117.750 L 341.750 117.750 L 347.250 116.750 L 349.750 116.750 L 351.500 116.500 L 353.000 116.000 L 357.000 116.000 L 359.750 115.750 L 362.750 115.500 L 364.500 115.000 L 366.750 114.750 L 369.500 114.500 L 375.750 114.250 L 378.750 113.750 L 382.500 113.750 L 384.750 113.500 L 387.000 113.000 L 390.000 113.000 L 392.750 112.750 L 395.750 112.500 L 398.250 112.000 L 401.750 112.000 L 405.250 111.750 L 406.750 111.500 L 408.000 111.000 L 411.750 111.000 L 413.500 110.750 L 414.000 110.250 L 413.500 109.750 Z M 550.250 104.000 L 537.500 104.250 L 532.250 104.750 L 523.750 104.750 L 519.000 105.000 L 516.250 105.500 L 512.750 105.750 L 509.500 106.000 L 504.250 106.000 L 501.000 106.500 L 497.250 106.750 L 490.000 106.750 L 487.000 107.000 L 484.000 107.500 L 480.750 107.750 L 476.250 107.750 L 472.750 108.000 L 470.000 108.500 L 467.000 108.500 L 464.000 109.000 L 460.750 109.000 L 455.750 109.750 L 452.000 109.750 L 448.750 110.000 L 446.000 110.500 L 443.000 110.500 L 440.250 111.000 L 437.500 111.000 L 433.750 111.750 L 430.750 112.000 L 426.250 112.000 L 423.750 112.250 L 419.500 113.000 L 417.000 113.000 L 415.000 113.500 L 413.000 113.750 L 410.250 113.750 L 407.750 114.000 L 406.250 114.250 L 404.750 114.750 L 402.750 115.000 L 398.000 115.250 L 395.750 115.750 L 393.500 116.000 L 391.000 116.000 L 389.500 116.250 L 388.000 116.750 L 383.750 117.000 L 380.250 117.750 L 376.250 118.000 L 374.250 118.500 L 372.250 118.750 L 367.250 119.000 L 365.500 119.250 L 363.750 119.750 L 359.500 120.000 L 356.000 120.750 L 352.000 121.000 L 350.250 121.500 L 348.250 121.750 L 346.250 121.750 L 344.500 122.000 L 338.250 123.000 L 336.750 123.500 L 335.000 123.750 L 333.000 123.750 L 331.250 124.000 L 329.750 124.250 L 327.000 125.000 L 325.500 125.000 L 321.000 125.750 L 318.250 126.500 L 315.250 126.750 L 312.750 127.250 L 307.750 128.250 L 304.250 129.000 L 302.250 129.750 L 301.000 129.750 L 295.000 131.000 L 292.750 131.750 L 291.500 131.750 L 290.250 132.000 L 289.250 132.250 L 288.250 132.750 L 287.000 133.000 L 286.000 133.000 L 284.750 133.250 L 283.750 133.750 L 282.500 134.000 L 281.250 134.000 L 279.000 134.750 L 276.500 135.000 L 274.500 135.750 L 271.500 136.000 L 270.500 136.500 L 269.250 136.750 L 267.750 136.750 L 266.500 137.000 L 265.500 137.500 L 264.500 137.750 L 262.000 138.000 L 259.750 138.750 L 257.250 139.000 L 253.750 139.750 L 250.500 140.750 L 248.250 141.000 L 247.250 141.500 L 246.250 141.750 L 244.750 141.750 L 243.500 142.000 L 242.500 142.500 L 241.250 142.750 L 240.000 143.000 L 237.500 143.250 L 236.250 143.750 L 232.500 144.500 L 229.750 144.750 L 228.750 145.000 L 227.750 145.250 L 226.750 145.750 L 225.750 146.000 L 222.500 146.750 L 219.750 147.000 L 218.500 147.250 L 216.250 148.000 L 215.000 148.000 L 212.750 148.750 L 211.500 148.750 L 210.250 149.000 L 208.500 149.750 L 206.750 150.000 L 202.750 150.000 L 202.250 150.500 L 202.250 151.250 L 202.750 151.750 L 203.500 152.000 L 204.750 152.000 L 206.000 152.750 L 207.000 153.000 L 208.250 153.000 L 209.750 153.750 L 211.750 154.000 L 212.750 154.500 L 213.750 154.750 L 217.000 155.500 L 218.750 155.750 L 220.250 155.750 L 221.750 156.000 L 223.250 156.500 L 224.750 156.500 L 226.000 157.000 L 230.000 157.250 L 231.500 157.750 L 234.250 158.000 L 237.750 158.250 L 241.500 158.250 L 243.500 158.750 L 253.500 158.750 L 257.500 158.500 L 260.750 158.250 L 263.750 157.750 L 266.750 157.750 L 268.250 157.250 L 270.250 157.000 L 272.500 157.000 L 273.750 156.750 L 276.250 156.000 L 277.500 155.750 L 278.750 155.750 L 280.500 155.500 L 281.250 155.000 L 282.250 154.750 L 285.000 154.000 L 287.000 153.750 L 288.750 153.000 L 290.750 152.750 L 292.500 152.000 L 294.500 151.750 L 295.250 151.500 L 296.000 151.000 L 300.500 149.750 L 301.500 149.750 L 303.000 149.000 L 304.750 148.750 L 308.000 147.500 L 309.750 147.250 L 313.750 145.750 L 318.500 144.750 L 322.250 143.750 L 324.000 143.000 L 325.750 142.750 L 327.500 142.000 L 329.250 141.750 L 331.750 141.000 L 334.250 140.000 L 340.250 138.250 L 347.750 136.500 L 350.500 135.750 L 351.500 135.500 L 352.250 135.000 L 353.250 134.750 L 354.250 134.750 L 356.250 134.000 L 358.250 133.750 L 360.250 133.000 L 361.250 132.750 L 366.500 131.750 L 368.500 131.000 L 370.750 130.750 L 371.750 130.250 L 372.750 130.000 L 374.000 130.000 L 377.250 129.000 L 378.500 128.750 L 379.750 128.750 L 382.250 128.000 L 384.750 127.750 L 387.250 127.000 L 389.750 126.750 L 394.250 125.500 L 395.500 125.500 L 396.750 125.000 L 398.000 124.750 L 399.250 124.750 L 401.750 124.000 L 403.250 123.750 L 409.000 123.000 L 410.500 122.750 L 412.750 122.000 L 414.250 121.750 L 415.750 121.750 L 417.000 121.500 L 418.250 121.000 L 419.750 120.750 L 421.250 120.750 L 422.750 120.500 L 424.000 120.000 L 425.500 119.750 L 427.000 119.750 L 431.000 118.750 L 432.500 118.750 L 434.000 118.500 L 435.250 118.000 L 437.000 117.750 L 438.750 117.750 L 440.250 117.500 L 444.500 116.750 L 447.250 116.000 L 449.000 115.750 L 450.750 115.750 L 452.250 115.500 L 453.750 115.000 L 455.250 114.750 L 457.250 114.750 L 458.750 114.500 L 460.250 114.000 L 462.250 113.750 L 464.250 113.750 L 467.750 113.000 L 472.000 112.750 L 474.000 112.250 L 476.000 112.000 L 478.750 112.000 L 480.750 111.750 L 482.750 111.250 L 484.750 111.000 L 487.000 110.750 L 489.250 110.750 L 493.750 110.000 L 498.250 109.750 L 500.250 109.500 L 502.250 109.000 L 504.250 108.750 L 506.500 108.750 L 508.750 108.500 L 510.500 108.000 L 513.000 107.750 L 518.250 107.250 L 523.750 107.000 L 528.750 106.250 L 533.500 106.250 L 537.750 106.000 L 540.500 105.750 L 542.750 105.500 L 547.000 104.750 L 549.500 104.750 L 552.250 104.250 L 551.750 104.000 Z M 641.750 102.750 L 637.000 103.000 L 632.000 103.250 L 627.500 103.750 L 620.500 104.000 L 612.750 104.000 L 607.500 104.250 L 603.000 104.750 L 598.250 105.000 L 593.250 105.000 L 587.750 105.250 L 584.000 105.500 L 580.500 106.000 L 572.500 106.250 L 569.250 106.750 L 559.250 107.500 L 555.000 107.500 L 552.500 108.000 L 549.750 108.000 L 547.250 108.250 L 545.250 108.750 L 542.500 109.000 L 539.250 109.000 L 534.750 109.750 L 531.250 109.750 L 529.000 110.250 L 526.500 110.500 L 523.750 110.500 L 521.250 110.750 L 519.000 111.000 L 516.750 111.250 L 505.000 112.750 L 503.000 113.000 L 501.250 113.500 L 499.250 113.750 L 497.250 114.000 L 495.000 114.000 L 493.250 114.250 L 491.750 114.750 L 489.750 114.750 L 488.000 115.000 L 486.250 115.500 L 484.500 115.750 L 482.500 115.750 L 480.750 116.000 L 476.000 116.750 L 474.500 117.000 L 471.500 117.750 L 468.250 118.000 L 466.000 118.750 L 464.000 119.000 L 462.250 119.000 L 459.000 119.750 L 457.250 119.750 L 455.250 120.000 L 452.750 120.750 L 451.000 120.750 L 449.250 121.000 L 448.000 121.500 L 446.750 121.750 L 443.250 122.000 L 441.750 122.250 L 440.500 122.750 L 438.750 122.750 L 437.250 123.000 L 434.750 123.750 L 433.250 124.000 L 431.750 124.250 L 430.250 124.250 L 428.750 124.500 L 427.250 124.750 L 423.250 125.750 L 421.500 125.750 L 420.250 126.000 L 419.000 126.500 L 412.750 127.750 L 410.000 128.000 L 408.750 128.250 L 407.500 128.500 L 405.250 129.000 L 403.000 129.750 L 399.500 130.500 L 395.500 131.000 L 392.000 131.750 L 390.750 132.000 L 388.750 132.750 L 387.750 133.000 L 382.500 134.000 L 381.500 134.250 L 380.500 134.750 L 379.500 135.000 L 376.250 135.750 L 374.000 136.000 L 373.000 136.500 L 371.750 136.750 L 370.750 136.750 L 369.500 137.000 L 367.500 137.750 L 365.250 138.000 L 364.250 138.250 L 363.250 138.750 L 361.000 139.000 L 354.000 140.750 L 351.000 141.750 L 349.000 142.000 L 348.000 142.250 L 345.250 143.000 L 343.500 143.750 L 341.750 144.000 L 338.250 145.250 L 336.500 145.750 L 333.750 146.250 L 332.000 147.000 L 327.500 148.000 L 326.000 148.750 L 321.250 150.000 L 319.750 150.750 L 319.000 151.000 L 317.250 151.250 L 316.500 151.750 L 315.500 152.000 L 314.500 152.000 L 312.750 152.750 L 311.000 153.000 L 309.250 153.750 L 308.250 154.000 L 307.250 154.000 L 305.250 154.750 L 303.250 155.000 L 301.250 155.750 L 300.250 156.000 L 299.000 156.000 L 298.000 156.500 L 295.750 156.750 L 293.750 157.500 L 292.750 157.500 L 291.750 158.000 L 291.750 158.500 L 292.250 159.000 L 295.000 159.000 L 299.250 158.750 L 302.250 158.500 L 307.500 157.750 L 310.500 157.750 L 312.750 157.500 L 314.500 157.000 L 317.750 156.750 L 320.750 156.750 L 323.000 156.500 L 324.500 156.000 L 327.000 156.000 L 329.500 155.750 L 331.000 155.250 L 332.500 155.000 L 335.000 155.000 L 337.250 154.750 L 338.750 154.250 L 340.500 154.000 L 343.000 154.000 L 344.750 153.750 L 346.250 153.250 L 349.500 152.750 L 352.000 152.750 L 354.750 152.000 L 356.750 152.000 L 358.500 151.750 L 361.750 151.000 L 363.500 151.000 L 365.000 150.750 L 366.250 150.250 L 367.750 150.250 L 369.250 149.750 L 371.250 149.750 L 373.000 149.500 L 377.500 148.750 L 383.250 147.500 L 384.750 147.250 L 386.250 147.250 L 392.000 146.250 L 393.500 146.000 L 394.750 145.500 L 397.500 145.250 L 398.750 144.750 L 402.000 144.500 L 403.500 144.000 L 405.000 143.750 L 406.750 143.750 L 411.000 142.750 L 412.500 142.750 L 414.000 142.500 L 415.250 142.000 L 416.750 141.750 L 418.250 141.750 L 421.000 141.000 L 423.750 140.750 L 426.500 140.000 L 429.250 139.750 L 430.500 139.500 L 431.750 139.000 L 434.500 138.750 L 435.750 138.250 L 439.750 137.750 L 442.250 137.000 L 445.750 136.750 L 447.250 136.500 L 448.500 136.000 L 452.000 135.750 L 453.000 135.500 L 454.000 135.000 L 455.750 135.000 L 457.250 134.750 L 458.250 134.250 L 459.500 134.000 L 461.250 134.000 L 462.750 133.750 L 465.000 133.000 L 468.500 132.750 L 470.750 132.000 L 473.750 131.750 L 474.750 131.250 L 476.000 131.000 L 477.500 131.000 L 479.000 130.500 L 485.250 129.750 L 486.500 129.250 L 488.000 129.000 L 489.500 129.000 L 492.250 128.250 L 494.000 128.250 L 495.750 127.750 L 497.500 127.750 L 500.250 127.000 L 502.250 127.000 L 504.000 126.750 L 505.500 126.500 L 506.750 126.000 L 508.250 125.750 L 510.000 125.750 L 512.750 125.000 L 516.250 124.750 L 519.000 124.000 L 520.500 123.750 L 522.000 123.750 L 529.500 122.500 L 531.000 122.000 L 532.500 121.750 L 535.750 121.500 L 537.250 121.000 L 539.000 120.750 L 541.000 120.750 L 542.750 120.250 L 544.750 120.250 L 546.500 119.750 L 548.250 119.750 L 550.000 119.500 L 551.500 119.000 L 553.500 118.750 L 555.750 118.750 L 557.000 118.250 L 558.500 118.000 L 560.500 118.000 L 562.250 117.500 L 564.750 117.500 L 567.750 116.750 L 570.250 116.750 L 571.750 116.500 L 573.000 116.000 L 577.000 115.750 L 578.250 115.250 L 579.500 115.000 L 582.000 115.000 L 584.000 114.750 L 587.000 114.000 L 589.250 114.000 L 595.000 113.000 L 597.500 113.000 L 601.500 112.500 L 603.500 112.250 L 605.250 111.750 L 608.000 111.750 L 611.500 111.000 L 614.750 111.000 L 617.500 110.750 L 621.250 110.000 L 623.750 109.750 L 626.500 109.750 L 630.500 109.000 L 633.250 108.750 L 638.250 108.500 L 640.750 108.000 L 643.250 107.750 L 646.250 107.750 L 650.750 107.250 L 658.000 106.250 L 661.500 106.000 L 664.750 105.750 L 669.500 105.750 L 672.000 105.250 L 675.750 105.000 L 679.750 104.750 L 684.250 104.750 L 687.250 104.250 L 691.000 104.250 L 694.250 104.000 L 696.250 103.000 L 693.750 102.750 Z M 391.000 97.000 L 372.250 97.250 L 360.500 97.750 L 347.500 98.000 L 333.250 98.000 L 326.250 98.250 L 319.250 98.750 L 307.250 98.750 L 298.500 99.000 L 292.000 99.500 L 285.250 99.750 L 276.000 99.750 L 266.750 100.000 L 261.750 100.250 L 257.000 100.750 L 250.750 100.750 L 245.250 101.000 L 242.500 101.500 L 237.500 101.750 L 232.250 101.750 L 226.750 102.000 L 218.250 102.750 L 213.250 102.750 L 208.750 103.000 L 205.500 103.500 L 201.250 103.500 L 197.250 103.750 L 193.750 104.250 L 189.500 104.250 L 185.500 104.750 L 181.000 105.000 L 176.250 105.000 L 174.000 105.500 L 170.500 105.750 L 165.500 105.750 L 160.500 106.000 L 158.250 106.500 L 155.500 106.500 L 153.000 107.000 L 149.250 107.000 L 146.000 107.500 L 142.000 107.500 L 139.000 108.000 L 135.250 108.000 L 132.250 108.500 L 129.000 108.500 L 126.000 109.000 L 121.750 109.000 L 119.500 109.500 L 116.250 109.750 L 112.250 109.750 L 109.250 110.250 L 105.250 110.250 L 103.750 110.750 L 100.000 110.750 L 97.000 111.000 L 92.250 111.750 L 89.000 112.000 L 85.000 112.000 L 83.000 112.500 L 80.750 112.750 L 78.250 113.000 L 75.250 113.000 L 70.250 113.750 L 67.500 114.000 L 64.500 114.000 L 60.500 114.750 L 57.000 114.750 L 54.250 115.000 L 52.000 115.500 L 49.250 115.500 L 47.750 116.000 L 44.000 116.000 L 42.000 116.500 L 39.750 116.750 L 37.000 116.750 L 34.750 117.000 L 31.000 117.750 L 28.500 117.750 L 26.250 118.000 L 22.500 118.500 L 19.000 119.250 L 15.500 119.750 L 12.750 120.000 L 9.250 120.000 L 7.000 120.250 L 4.750 120.750 L 1.500 120.750 L 1.250 121.750 L 2.750 122.000 L 10.000 122.000 L 15.500 122.250 L 25.000 123.000 L 28.000 123.500 L 31.750 123.750 L 35.750 123.750 L 38.000 124.250 L 40.750 124.250 L 43.250 124.750 L 47.750 124.750 L 49.250 125.250 L 51.500 125.250 L 53.750 125.750 L 57.000 126.000 L 62.000 126.000 L 65.000 126.500 L 68.500 126.500 L 71.000 127.000 L 85.250 127.250 L 92.000 127.250 L 101.500 127.000 L 108.250 126.750 L 112.500 126.500 L 120.250 125.750 L 124.250 125.750 L 126.750 125.250 L 130.500 125.250 L 133.000 124.750 L 137.250 124.750 L 140.000 124.500 L 142.000 124.000 L 145.250 124.000 L 148.000 123.500 L 151.500 123.500 L 156.750 122.750 L 159.750 122.750 L 168.250 121.750 L 171.500 121.750 L 174.250 121.250 L 177.750 121.250 L 180.250 120.750 L 183.750 120.750 L 189.500 120.000 L 192.500 119.750 L 195.750 119.750 L 198.000 119.500 L 200.250 119.000 L 203.500 118.750 L 207.500 118.750 L 212.250 118.000 L 215.750 117.750 L 219.750 117.750 L 222.750 117.500 L 224.500 117.000 L 227.000 116.750 L 230.500 116.750 L 233.000 116.250 L 236.000 116.000 L 240.000 116.000 L 243.500 115.750 L 246.500 115.500 L 248.750 115.000 L 252.250 114.750 L 258.500 114.750 L 262.500 114.500 L 264.500 114.000 L 269.000 113.750 L 274.000 113.750 L 278.000 113.250 L 282.000 113.250 L 285.250 112.750 L 289.250 112.500 L 293.750 112.500 L 296.500 112.000 L 301.500 111.750 L 307.750 111.750 L 311.750 111.250 L 316.000 111.000 L 321.750 111.000 L 327.000 110.750 L 331.250 110.500 L 334.750 110.000 L 339.750 109.750 L 345.250 109.750 L 349.000 109.250 L 353.000 109.000 L 360.000 108.750 L 367.000 108.750 L 372.750 108.250 L 379.500 108.000 L 389.750 108.000 L 399.500 107.750 L 403.250 107.250 L 410.500 107.000 L 418.250 106.750 L 429.250 106.750 L 440.000 106.000 L 445.750 105.750 L 452.250 105.750 L 457.750 105.500 L 462.750 105.000 L 468.250 104.750 L 475.000 104.750 L 479.750 104.500 L 484.000 104.000 L 489.500 104.000 L 494.750 103.750 L 498.500 103.250 L 503.000 103.000 L 510.750 102.750 L 519.250 102.750 L 525.000 102.250 L 533.500 102.250 L 541.750 101.750 L 550.750 101.500 L 553.000 101.500 L 556.750 102.000 L 568.250 102.250 L 577.500 102.250 L 588.750 102.000 L 600.250 101.750 L 604.000 101.500 L 605.000 101.250 L 606.000 100.750 L 605.000 100.500 L 604.000 100.250 L 602.250 100.000 L 591.000 99.750 L 576.250 99.750 L 568.500 99.500 L 565.500 99.000 L 554.500 98.750 L 540.000 98.750 L 531.250 98.500 L 524.250 98.000 L 507.750 98.000 L 496.000 97.500 L 479.750 97.250 L 462.000 97.000 Z M 528.000 3.000 L 527.250 3.750 L 527.250 6.000 L 527.750 6.500 L 530.000 6.500 L 531.750 6.750 L 532.750 7.000 L 534.500 7.750 L 535.000 8.000 L 535.750 8.500 L 536.500 9.000 L 537.750 10.250 L 538.500 11.500 L 538.750 12.000 L 539.000 12.500 L 539.250 14.000 L 539.000 16.750 L 539.250 63.500 L 539.000 67.750 L 538.750 69.250 L 538.500 70.000 L 538.250 70.500 L 538.000 71.000 L 537.250 72.000 L 536.500 72.750 L 535.750 73.250 L 535.000 73.750 L 534.250 74.000 L 533.250 74.250 L 532.000 74.500 L 530.250 74.750 L 528.250 74.750 L 527.750 75.250 L 527.500 76.750 L 527.500 77.250 L 527.750 77.750 L 557.500 78.000 L 558.000 77.500 L 558.000 76.750 L 557.500 75.000 L 557.000 74.750 L 555.000 74.750 L 551.750 74.000 L 550.750 73.750 L 549.250 73.000 L 548.500 72.250 L 548.250 72.250 L 547.750 71.750 L 547.750 71.500 L 547.000 70.750 L 546.750 70.250 L 546.500 69.750 L 546.250 69.000 L 546.000 67.750 L 545.750 64.250 L 546.000 29.750 L 546.000 20.250 L 546.000 20.000 L 546.750 19.750 L 547.500 20.500 L 548.750 22.250 L 551.750 25.250 L 554.250 28.500 L 557.000 31.500 L 560.000 34.500 L 561.500 36.500 L 563.250 38.500 L 567.750 43.000 L 569.250 45.000 L 571.500 47.500 L 576.250 52.750 L 579.000 55.500 L 581.750 58.500 L 583.250 60.500 L 586.000 63.500 L 589.750 67.250 L 591.500 69.500 L 594.000 72.000 L 596.000 74.250 L 598.000 76.500 L 598.750 77.500 L 599.000 78.250 L 599.750 79.000 L 604.500 79.000 L 605.000 78.500 L 605.000 16.750 L 605.250 13.750 L 605.500 12.000 L 605.750 10.750 L 606.000 10.250 L 606.500 9.500 L 608.000 8.000 L 610.000 7.000 L 611.250 6.750 L 613.750 6.500 L 614.750 6.750 L 615.250 6.750 L 615.750 6.500 L 616.250 5.250 L 616.250 4.500 L 616.000 3.500 L 615.500 3.000 L 586.500 3.250 L 586.250 5.000 L 586.250 5.750 L 586.500 6.250 L 586.750 6.500 L 587.250 6.750 L 591.500 6.750 L 592.750 7.000 L 593.500 7.250 L 594.750 7.750 L 595.500 8.250 L 597.000 9.750 L 597.250 10.250 L 597.500 11.000 L 597.750 11.750 L 598.000 13.500 L 598.250 20.000 L 598.000 48.500 L 597.250 48.500 L 594.000 45.250 L 591.750 42.500 L 588.750 39.250 L 585.250 35.750 L 583.750 33.750 L 581.000 30.750 L 577.750 27.500 L 573.750 22.750 L 570.750 19.750 L 568.750 17.500 L 567.250 15.500 L 565.000 13.250 L 562.750 10.750 L 561.750 9.250 L 560.250 7.750 L 559.000 6.250 L 557.250 4.000 L 557.250 3.750 L 556.750 3.250 L 556.250 3.000 Z M 481.500 3.000 L 481.000 3.500 L 481.000 4.500 L 480.750 4.750 L 480.750 5.500 L 481.000 6.000 L 481.500 6.500 L 484.000 6.500 L 486.500 6.750 L 487.500 7.000 L 489.000 7.750 L 491.000 9.750 L 491.500 11.000 L 491.750 11.750 L 492.000 47.000 L 492.000 57.750 L 491.750 58.000 L 491.750 69.000 L 491.500 70.000 L 491.250 70.750 L 491.000 71.250 L 490.750 71.750 L 489.500 73.000 L 488.750 73.500 L 488.250 73.750 L 487.500 74.000 L 486.750 74.250 L 485.500 74.500 L 483.250 74.750 L 481.250 74.750 L 480.750 75.250 L 481.000 78.000 L 493.250 78.250 L 507.000 78.000 L 519.500 78.250 L 520.750 78.250 L 521.250 78.000 L 521.750 77.500 L 521.750 77.000 L 521.500 75.750 L 521.250 75.250 L 521.000 75.000 L 520.500 74.750 L 518.000 74.750 L 516.500 74.500 L 515.500 74.250 L 514.500 74.000 L 513.750 73.750 L 513.000 73.250 L 511.250 71.500 L 511.000 71.000 L 510.750 70.500 L 510.500 69.750 L 510.250 68.750 L 510.000 65.750 L 510.000 45.750 L 510.250 13.250 L 510.500 11.750 L 510.750 10.750 L 511.000 10.250 L 511.750 9.500 L 511.750 9.250 L 512.250 8.750 L 512.500 8.750 L 513.250 8.000 L 514.750 7.250 L 515.500 7.000 L 516.750 6.750 L 518.750 6.500 L 521.000 6.500 L 521.500 6.000 L 521.250 3.250 L 520.750 3.000 Z M 407.000 3.000 L 406.500 3.500 L 406.500 6.000 L 407.250 6.750 L 410.250 6.750 L 412.000 7.000 L 412.750 7.250 L 413.500 7.500 L 414.000 7.750 L 414.500 8.000 L 416.250 9.750 L 416.750 10.500 L 417.000 11.250 L 417.250 13.000 L 417.250 68.000 L 417.000 69.500 L 416.750 70.500 L 416.250 71.250 L 415.750 72.000 L 415.000 72.750 L 414.250 73.250 L 413.500 73.750 L 412.750 74.000 L 412.000 74.250 L 411.000 74.500 L 409.750 74.750 L 407.000 74.750 L 406.500 75.000 L 406.500 78.000 L 418.750 78.250 L 470.250 78.250 L 470.750 77.750 L 471.000 77.250 L 471.000 76.250 L 471.750 74.500 L 472.000 72.750 L 472.750 71.000 L 473.750 66.000 L 475.000 62.750 L 475.750 59.500 L 476.500 58.000 L 476.500 56.250 L 476.000 55.750 L 475.500 55.500 L 473.750 55.500 L 473.000 56.250 L 472.500 57.250 L 472.250 57.750 L 471.750 59.250 L 471.500 59.750 L 470.500 61.500 L 470.000 62.250 L 469.500 63.000 L 468.750 64.000 L 465.000 67.750 L 463.750 68.750 L 463.000 69.250 L 462.250 69.750 L 460.250 70.750 L 458.000 71.500 L 457.000 71.750 L 456.000 72.000 L 453.750 72.250 L 450.000 72.500 L 443.500 72.500 L 440.750 72.250 L 439.250 72.000 L 438.750 71.750 L 438.000 71.250 L 436.750 70.000 L 436.500 69.500 L 436.250 69.000 L 436.000 68.000 L 435.750 66.250 L 435.750 14.250 L 436.000 11.750 L 437.000 9.750 L 438.500 8.250 L 440.000 7.500 L 440.750 7.250 L 441.500 7.000 L 442.750 6.750 L 445.500 6.750 L 447.250 6.500 L 447.750 6.000 L 447.500 3.250 L 447.000 3.000 Z M 312.500 3.000 L 312.000 3.500 L 312.000 5.750 L 312.250 6.250 L 312.500 6.500 L 313.000 6.750 L 315.500 6.750 L 316.750 7.000 L 317.500 7.250 L 318.750 7.750 L 319.250 8.000 L 320.500 8.750 L 322.750 11.000 L 323.500 12.250 L 323.750 12.750 L 324.000 13.500 L 324.250 22.000 L 324.250 26.000 L 324.000 65.500 L 323.750 67.750 L 323.500 68.750 L 323.250 69.500 L 323.000 70.250 L 322.500 71.000 L 320.500 73.000 L 319.000 73.750 L 318.250 74.000 L 317.250 74.250 L 315.750 74.500 L 313.250 74.500 L 312.250 75.000 L 312.000 76.000 L 312.250 78.000 L 342.750 77.750 L 342.750 75.250 L 342.250 74.750 L 339.750 74.750 L 336.500 74.000 L 335.750 73.750 L 333.750 72.750 L 332.250 71.250 L 331.750 70.500 L 331.250 69.250 L 331.000 68.500 L 330.750 67.000 L 330.500 43.500 L 330.750 23.250 L 330.500 21.500 L 330.500 20.750 L 331.500 20.000 L 332.250 20.750 L 333.000 22.000 L 334.250 23.500 L 336.000 25.500 L 338.000 27.750 L 340.750 30.750 L 344.000 34.000 L 346.000 36.500 L 349.000 39.750 L 352.750 43.500 L 354.250 45.500 L 359.000 50.500 L 360.750 52.750 L 364.000 56.000 L 366.000 58.500 L 369.000 61.500 L 375.000 68.500 L 377.750 71.500 L 381.000 74.750 L 382.500 76.500 L 383.250 77.750 L 384.250 78.750 L 384.750 79.000 L 388.750 79.000 L 389.250 78.750 L 389.750 69.500 L 389.750 17.250 L 390.000 13.000 L 390.250 12.000 L 390.500 11.250 L 391.250 9.750 L 392.750 8.250 L 393.500 7.750 L 395.250 7.000 L 396.250 6.750 L 398.250 6.500 L 400.500 6.500 L 401.250 5.750 L 401.250 3.750 L 400.500 3.000 L 372.500 3.000 L 372.000 3.500 L 372.250 6.500 L 372.750 6.750 L 375.500 6.750 L 377.250 7.000 L 378.000 7.250 L 378.750 7.500 L 380.250 8.250 L 381.500 9.500 L 382.000 10.250 L 382.750 11.750 L 383.000 13.750 L 383.000 48.750 L 382.250 49.250 L 381.000 48.000 L 377.750 44.500 L 375.750 42.000 L 372.000 38.250 L 369.000 35.000 L 367.500 33.000 L 365.250 30.500 L 362.750 28.000 L 360.500 25.500 L 357.000 21.250 L 354.000 18.250 L 352.500 16.500 L 350.750 14.500 L 349.750 13.000 L 346.500 9.500 L 345.000 7.750 L 344.000 6.500 L 343.250 5.500 L 342.750 4.500 L 342.000 3.750 L 342.000 3.500 L 341.500 3.000 Z M 266.250 3.000 L 265.750 3.500 L 265.750 6.000 L 266.250 6.500 L 266.750 6.750 L 267.250 6.750 L 267.750 6.500 L 270.750 6.750 L 272.000 7.000 L 272.750 7.250 L 273.250 7.500 L 273.750 7.750 L 274.500 8.250 L 275.000 8.750 L 275.000 9.000 L 275.750 9.750 L 276.000 10.250 L 276.250 11.000 L 276.500 11.750 L 276.750 16.750 L 276.750 66.750 L 276.500 68.750 L 276.250 69.750 L 276.000 70.500 L 275.750 71.000 L 273.750 73.000 L 273.000 73.500 L 272.500 73.750 L 271.750 74.000 L 271.000 74.250 L 270.000 74.500 L 268.250 74.750 L 266.000 74.750 L 265.500 75.000 L 265.000 76.500 L 265.000 77.500 L 265.500 78.000 L 281.000 78.250 L 297.250 78.000 L 304.500 78.250 L 305.500 78.250 L 306.000 78.000 L 306.000 75.000 L 305.000 74.750 L 302.250 74.750 L 301.000 74.500 L 299.250 74.000 L 298.750 73.750 L 298.250 73.500 L 297.500 73.000 L 296.250 71.750 L 295.500 70.250 L 295.250 69.500 L 295.000 67.750 L 295.000 12.750 L 295.250 11.750 L 295.500 11.000 L 295.750 10.500 L 296.000 10.000 L 296.500 9.250 L 297.500 8.250 L 298.250 7.750 L 298.750 7.500 L 300.000 7.000 L 300.750 6.750 L 303.000 6.500 L 305.500 6.500 L 306.000 6.000 L 306.250 5.250 L 306.250 4.250 L 305.750 3.250 L 296.500 3.000 Z M 694.000 3.000 L 693.750 3.500 L 693.500 6.500 L 693.750 7.750 L 694.500 7.750 L 695.000 7.250 L 695.000 6.750 L 695.500 6.000 L 696.500 5.000 L 697.000 4.750 L 698.000 4.750 L 698.250 4.500 L 699.000 4.500 L 699.500 4.750 L 700.000 5.250 L 700.000 18.250 L 699.250 19.000 L 698.500 19.000 L 698.000 19.500 L 698.000 20.250 L 698.500 20.750 L 699.750 20.750 L 705.500 20.750 L 707.750 20.500 L 708.000 20.000 L 707.250 19.250 L 706.500 19.250 L 706.000 19.000 L 705.000 18.000 L 705.000 9.750 L 705.250 5.250 L 706.000 4.500 L 706.500 4.250 L 707.000 4.250 L 707.250 4.500 L 708.000 4.500 L 708.500 4.750 L 709.000 5.000 L 709.750 5.750 L 710.000 6.500 L 710.500 7.000 L 711.000 7.250 L 711.500 7.000 L 711.750 5.500 L 711.500 5.250 L 711.500 4.250 L 712.250 3.750 L 712.750 4.000 L 713.500 4.500 L 714.250 5.250 L 714.500 5.750 L 714.500 17.000 L 714.250 18.000 L 712.750 19.500 L 713.000 20.750 L 718.500 20.500 L 718.500 19.750 L 717.250 18.750 L 716.750 18.250 L 716.750 13.750 L 716.500 13.500 L 716.500 9.250 L 717.000 8.750 L 718.000 9.750 L 718.500 11.000 L 719.500 13.000 L 721.000 16.000 L 721.000 16.500 L 721.750 18.000 L 722.750 20.000 L 723.000 20.500 L 723.250 20.750 L 723.750 21.000 L 724.250 20.750 L 724.500 20.500 L 724.750 20.000 L 724.750 19.500 L 725.000 19.000 L 725.750 18.000 L 726.000 17.000 L 726.500 16.500 L 727.000 14.750 L 727.750 13.750 L 728.250 12.500 L 729.000 10.000 L 729.250 9.500 L 730.250 8.750 L 730.750 9.250 L 730.750 18.250 L 730.000 19.000 L 729.500 19.250 L 729.000 19.250 L 728.500 19.500 L 728.500 20.750 L 738.000 20.500 L 738.000 19.750 L 737.500 19.250 L 736.500 19.000 L 735.750 18.250 L 735.500 13.000 L 735.500 6.250 L 735.500 5.750 L 735.750 5.000 L 736.500 4.250 L 737.250 4.000 L 737.250 3.000 L 736.500 2.750 L 736.000 2.750 L 734.250 2.750 L 733.250 2.750 L 730.750 3.000 L 730.000 3.750 L 729.750 4.750 L 729.750 5.750 L 729.500 6.250 L 729.000 6.750 L 728.750 7.750 L 728.000 8.500 L 727.750 9.000 L 726.750 11.750 L 726.000 13.250 L 725.250 13.750 L 724.250 12.750 L 723.750 11.750 L 723.000 10.250 L 720.000 3.500 L 719.250 2.750 L 713.000 2.750 L 712.000 3.500 L 711.500 3.500 L 710.750 2.750 Z M 681.000 2.750 L 621.750 3.250 L 621.500 3.750 L 621.500 5.750 L 622.250 6.500 L 624.250 6.750 L 626.750 6.750 L 628.000 7.000 L 630.000 8.000 L 631.250 9.250 L 631.750 10.000 L 632.000 10.500 L 632.250 11.000 L 632.750 13.000 L 632.750 13.750 L 632.500 15.000 L 632.750 67.000 L 632.500 69.250 L 632.250 70.250 L 632.000 71.000 L 631.500 71.750 L 630.250 73.000 L 629.500 73.500 L 629.000 73.750 L 628.000 74.000 L 626.750 74.250 L 625.250 74.500 L 622.000 74.500 L 621.500 74.750 L 621.500 78.000 L 622.000 78.250 L 623.000 78.250 L 624.750 78.000 L 653.000 78.000 L 677.250 78.250 L 683.750 78.250 L 684.750 77.750 L 685.000 77.250 L 685.000 76.000 L 685.750 74.250 L 685.750 73.250 L 686.500 71.500 L 687.000 68.750 L 687.750 67.000 L 688.000 65.250 L 689.250 62.250 L 689.750 60.000 L 690.000 59.250 L 690.750 58.000 L 690.750 57.500 L 690.000 56.750 L 689.250 56.750 L 688.500 56.250 L 687.250 56.250 L 686.750 56.750 L 686.000 58.250 L 686.000 58.750 L 685.000 60.750 L 683.750 62.750 L 683.250 63.500 L 682.750 64.250 L 681.750 65.500 L 679.500 67.750 L 678.250 68.750 L 676.500 69.750 L 674.750 70.500 L 674.000 70.750 L 673.250 71.000 L 669.250 72.000 L 666.750 72.250 L 656.000 72.250 L 654.750 72.000 L 654.000 71.750 L 653.250 71.250 L 651.750 69.750 L 651.500 69.250 L 651.250 68.750 L 651.000 67.500 L 651.000 43.000 L 651.500 42.500 L 660.750 42.500 L 664.250 42.750 L 665.250 43.000 L 666.000 43.250 L 667.250 43.750 L 668.250 44.500 L 670.000 46.250 L 670.500 47.000 L 670.750 47.500 L 671.000 48.000 L 671.250 49.000 L 671.500 50.000 L 671.500 52.250 L 671.750 52.750 L 672.250 53.250 L 675.000 53.250 L 675.500 52.750 L 675.750 27.000 L 675.750 26.500 L 675.000 25.750 L 674.250 25.500 L 673.250 25.500 L 672.000 26.000 L 671.750 26.500 L 671.750 29.000 L 671.500 30.000 L 671.250 31.000 L 671.000 31.750 L 670.750 32.500 L 670.250 33.250 L 668.500 35.000 L 667.750 35.500 L 667.250 35.750 L 666.750 36.000 L 666.000 36.250 L 665.000 36.500 L 663.750 36.750 L 660.750 37.000 L 651.750 37.000 L 651.000 36.250 L 651.000 9.500 L 651.750 8.750 L 668.000 8.750 L 669.500 9.000 L 670.500 9.250 L 671.250 9.750 L 672.000 9.750 L 672.750 10.000 L 673.250 10.250 L 673.750 10.750 L 674.250 10.750 L 675.000 11.250 L 677.250 13.500 L 677.750 14.250 L 678.750 16.250 L 679.750 19.000 L 679.750 20.000 L 680.000 21.000 L 680.500 21.500 L 681.750 21.750 L 683.000 21.500 L 683.500 21.000 L 683.750 20.500 L 683.750 19.750 L 683.500 13.750 L 683.250 8.250 L 683.000 3.250 L 682.500 2.750 Z M 222.250 1.500 L 221.250 1.750 L 217.250 3.000 L 216.000 3.750 L 215.250 4.000 L 214.500 4.250 L 212.750 4.750 L 211.500 5.000 L 210.250 5.000 L 209.000 5.500 L 207.750 5.750 L 204.500 5.750 L 203.750 6.000 L 203.250 6.500 L 203.500 8.000 L 204.250 8.250 L 205.000 8.250 L 206.250 8.750 L 206.750 9.000 L 207.500 9.500 L 208.250 10.000 L 209.750 11.500 L 210.250 12.250 L 210.750 13.000 L 210.750 14.500 L 209.750 17.500 L 209.000 18.750 L 208.750 20.250 L 208.500 21.000 L 208.000 22.250 L 207.000 24.500 L 205.750 27.250 L 204.750 29.500 L 204.000 30.500 L 203.750 31.750 L 202.250 34.750 L 201.000 37.750 L 200.750 39.000 L 199.750 40.750 L 199.500 42.000 L 198.750 43.750 L 195.000 51.250 L 194.750 52.500 L 193.000 56.250 L 191.750 60.000 L 190.750 62.250 L 189.750 64.250 L 189.500 64.750 L 188.000 67.250 L 187.750 68.250 L 187.500 68.750 L 186.750 70.000 L 185.750 71.250 L 185.250 71.750 L 183.750 73.000 L 182.500 73.750 L 181.750 74.000 L 180.750 74.250 L 179.750 74.500 L 178.500 74.500 L 177.500 75.250 L 176.750 75.250 L 176.250 75.000 L 175.750 74.500 L 175.250 74.250 L 173.250 74.000 L 172.750 73.750 L 172.250 73.500 L 171.000 72.750 L 170.250 72.250 L 169.500 71.750 L 166.250 68.500 L 165.000 67.000 L 164.000 65.750 L 162.750 63.750 L 161.750 62.750 L 161.000 61.750 L 157.750 56.750 L 155.000 53.250 L 152.750 50.000 L 151.000 47.500 L 150.750 46.750 L 150.000 46.000 L 149.750 45.250 L 148.500 44.000 L 148.500 43.250 L 149.000 42.750 L 150.000 42.750 L 151.750 42.000 L 152.250 41.750 L 153.250 41.000 L 154.250 40.750 L 154.750 40.500 L 156.500 39.500 L 157.500 38.750 L 160.750 35.500 L 161.500 34.500 L 162.500 32.750 L 163.500 30.750 L 163.750 30.000 L 164.500 26.750 L 164.750 24.750 L 164.750 22.000 L 164.500 20.750 L 164.000 19.500 L 164.000 18.000 L 163.750 17.250 L 163.000 15.500 L 162.250 14.000 L 161.500 12.750 L 160.750 11.750 L 159.750 10.500 L 158.250 9.000 L 157.250 8.250 L 156.500 7.750 L 155.750 7.250 L 153.500 6.000 L 152.250 5.750 L 151.750 5.250 L 151.250 5.000 L 149.250 4.750 L 147.500 4.000 L 144.250 3.750 L 143.000 3.250 L 140.000 3.000 L 95.750 3.000 L 95.250 3.500 L 95.000 4.250 L 95.000 6.000 L 95.500 6.500 L 97.500 6.500 L 99.750 6.750 L 101.000 7.000 L 103.000 8.000 L 104.750 9.750 L 105.000 10.250 L 105.250 10.750 L 105.500 12.000 L 105.750 19.250 L 105.500 29.250 L 105.500 35.750 L 105.750 45.750 L 105.500 68.750 L 105.250 69.750 L 105.000 70.750 L 104.750 71.250 L 104.000 72.000 L 104.000 72.250 L 103.500 72.750 L 102.750 73.250 L 102.000 73.750 L 101.000 74.000 L 100.000 74.250 L 98.500 74.500 L 95.500 74.750 L 95.000 74.750 L 94.500 75.250 L 94.750 78.000 L 95.250 78.250 L 96.000 78.250 L 98.000 78.000 L 125.250 78.000 L 133.500 78.250 L 134.000 78.250 L 134.500 78.000 L 135.000 77.500 L 135.000 77.000 L 134.750 75.000 L 134.250 74.500 L 131.250 74.500 L 130.000 74.250 L 128.750 74.000 L 128.000 73.750 L 126.500 73.000 L 125.000 71.500 L 124.750 71.000 L 124.500 70.500 L 124.250 69.750 L 124.000 68.500 L 124.000 46.250 L 124.750 45.500 L 125.250 45.500 L 128.500 45.750 L 129.000 46.000 L 131.500 48.500 L 132.750 50.250 L 134.000 52.750 L 134.750 53.500 L 135.000 54.250 L 137.250 57.250 L 139.000 60.250 L 139.750 61.250 L 140.750 62.250 L 141.000 63.000 L 143.000 65.500 L 144.750 68.000 L 145.000 68.750 L 146.250 70.500 L 147.000 71.500 L 148.750 73.500 L 151.500 76.250 L 152.500 77.000 L 153.250 77.500 L 155.000 77.750 L 157.250 78.000 L 163.000 78.250 L 177.250 78.000 L 194.750 78.250 L 204.750 77.750 L 204.750 76.250 L 204.500 75.250 L 204.000 74.750 L 202.000 74.750 L 199.750 74.250 L 198.750 74.000 L 198.250 73.750 L 197.750 73.500 L 195.750 71.500 L 195.500 71.000 L 195.500 68.500 L 195.750 67.000 L 196.000 66.250 L 196.250 65.500 L 197.000 64.250 L 197.750 62.250 L 197.750 61.500 L 198.750 59.750 L 199.750 56.500 L 200.250 55.500 L 200.750 55.000 L 226.000 55.000 L 226.750 55.750 L 227.000 56.500 L 227.000 57.250 L 227.750 58.500 L 228.000 59.750 L 228.750 61.000 L 228.750 61.750 L 229.000 62.500 L 230.500 65.500 L 231.000 66.750 L 231.250 67.500 L 231.500 68.250 L 231.750 69.250 L 231.750 70.750 L 231.000 72.250 L 230.000 73.250 L 229.250 73.750 L 228.750 74.000 L 227.750 74.250 L 226.250 74.500 L 224.750 74.750 L 222.750 75.000 L 222.500 77.000 L 222.500 77.500 L 223.250 78.250 L 257.000 78.000 L 259.500 78.250 L 260.750 78.250 L 261.750 77.750 L 262.000 77.250 L 262.000 76.250 L 261.500 75.000 L 260.750 74.750 L 259.000 74.750 L 258.250 74.500 L 257.000 74.000 L 256.500 73.750 L 255.750 73.250 L 255.000 72.750 L 253.000 70.750 L 252.500 70.000 L 252.000 69.250 L 251.500 68.250 L 251.250 67.750 L 250.750 66.250 L 250.250 65.750 L 249.250 63.500 L 248.500 61.750 L 248.000 60.500 L 247.250 58.000 L 246.000 55.500 L 245.750 54.250 L 244.750 52.000 L 244.000 50.250 L 242.750 48.000 L 242.500 46.750 L 241.750 45.000 L 241.000 44.000 L 240.750 43.250 L 240.750 42.500 L 240.500 42.000 L 240.000 41.500 L 239.750 40.250 L 239.000 39.000 L 238.750 37.750 L 237.750 36.000 L 237.500 34.750 L 236.750 33.000 L 234.750 29.000 L 233.250 25.500 L 231.750 21.000 L 231.000 19.750 L 230.750 18.500 L 229.000 15.000 L 228.250 13.250 L 227.750 12.000 L 227.500 10.750 L 226.000 7.750 L 225.750 6.500 L 225.500 6.000 L 225.000 5.500 L 224.750 4.250 L 224.000 3.000 L 224.000 2.500 L 223.750 2.000 L 223.500 1.750 L 223.000 1.500 Z M 213.250 25.000 L 213.750 25.000 L 214.250 25.500 L 214.500 26.250 L 215.750 29.250 L 216.000 30.500 L 217.000 32.250 L 217.750 34.000 L 218.000 35.250 L 218.750 36.500 L 219.000 37.750 L 221.000 41.750 L 221.250 43.000 L 222.750 46.000 L 223.000 47.250 L 223.500 47.750 L 223.750 48.500 L 223.500 49.000 L 204.750 49.500 L 203.750 49.500 L 203.250 49.000 L 203.250 48.250 L 204.000 46.500 L 205.000 44.750 L 206.000 41.750 L 206.750 40.000 L 209.750 33.750 L 210.250 32.500 L 211.000 30.000 L 212.500 27.000 L 212.750 25.500 Z M 128.250 8.250 L 131.750 8.250 L 133.500 8.500 L 135.000 8.750 L 136.000 9.000 L 137.750 9.750 L 138.250 10.000 L 139.250 10.750 L 141.750 13.250 L 142.500 14.500 L 143.000 15.500 L 143.750 17.000 L 144.000 17.750 L 144.250 18.750 L 144.250 20.750 L 144.750 22.750 L 144.750 26.750 L 144.500 28.500 L 144.000 30.750 L 143.750 31.750 L 142.750 33.750 L 142.000 34.750 L 140.750 36.250 L 140.250 36.750 L 139.000 37.750 L 138.250 38.250 L 136.750 39.000 L 135.500 39.500 L 134.750 39.750 L 134.000 40.000 L 132.250 40.250 L 130.250 40.500 L 124.500 40.500 L 124.000 40.000 L 123.750 39.500 L 123.750 39.000 L 124.000 10.500 L 124.250 9.750 L 124.500 9.250 L 125.000 8.750 L 125.500 8.500 Z M 43.500 1.000 L 40.250 1.250 L 39.250 1.750 L 38.000 2.000 L 36.500 2.000 L 34.750 2.750 L 33.000 3.000 L 31.250 3.750 L 29.500 4.000 L 28.750 4.250 L 26.750 5.000 L 26.250 5.250 L 25.750 5.750 L 22.250 7.250 L 21.000 8.000 L 18.000 10.000 L 16.250 11.500 L 11.000 16.750 L 10.000 18.000 L 9.500 18.750 L 9.000 19.500 L 7.250 22.500 L 7.000 23.000 L 6.750 23.500 L 6.750 24.000 L 6.500 24.500 L 6.000 25.000 L 6.000 25.500 L 5.250 26.500 L 5.000 27.000 L 5.000 27.750 L 3.750 30.500 L 3.250 32.250 L 3.000 33.500 L 2.500 36.000 L 2.250 38.750 L 2.250 44.500 L 2.500 47.500 L 2.750 49.000 L 3.250 50.250 L 3.250 51.500 L 4.000 54.250 L 4.250 55.000 L 4.750 56.250 L 6.000 59.250 L 6.250 59.750 L 7.000 61.000 L 9.000 64.000 L 10.000 65.250 L 11.750 67.250 L 15.250 70.750 L 16.500 71.750 L 19.500 73.750 L 21.250 74.750 L 22.250 75.000 L 23.250 75.750 L 23.750 76.000 L 25.500 76.750 L 26.250 76.750 L 27.750 77.500 L 29.250 78.000 L 30.250 78.000 L 32.000 78.750 L 33.250 79.000 L 34.750 79.000 L 37.250 79.750 L 41.000 80.000 L 48.500 80.250 L 49.250 80.250 L 52.500 79.750 L 53.250 79.750 L 53.500 80.000 L 54.250 80.000 L 57.250 79.750 L 60.250 79.000 L 62.500 79.000 L 64.500 78.750 L 65.500 78.500 L 66.500 78.000 L 69.250 77.750 L 70.000 77.500 L 70.750 77.000 L 72.500 76.750 L 73.250 76.500 L 75.250 75.750 L 76.500 75.000 L 77.250 75.000 L 77.750 74.750 L 80.000 73.500 L 80.500 73.000 L 80.750 73.000 L 81.000 71.000 L 80.500 68.250 L 80.500 54.000 L 80.750 50.750 L 81.000 50.250 L 81.250 49.750 L 83.000 48.000 L 83.500 47.750 L 84.000 47.500 L 84.750 47.250 L 85.750 47.000 L 89.000 47.000 L 89.500 46.500 L 89.500 44.500 L 89.000 44.000 L 51.500 44.000 L 51.000 44.500 L 51.000 46.500 L 51.750 47.250 L 54.500 47.250 L 56.250 47.500 L 57.750 47.750 L 58.500 48.000 L 59.000 48.250 L 59.500 48.500 L 60.250 49.000 L 60.750 49.500 L 60.750 49.750 L 61.500 50.500 L 61.750 51.000 L 62.000 51.750 L 62.000 68.750 L 61.750 70.000 L 61.250 70.750 L 59.250 72.750 L 57.750 73.500 L 56.500 74.000 L 54.750 74.500 L 53.750 74.750 L 50.500 75.000 L 48.000 75.000 L 46.250 74.750 L 45.000 74.500 L 42.000 73.750 L 41.250 73.500 L 40.500 73.250 L 39.250 72.750 L 37.250 71.750 L 36.000 71.000 L 35.000 70.250 L 33.500 69.000 L 32.750 68.250 L 30.750 66.000 L 30.000 65.000 L 29.500 64.250 L 29.000 63.500 L 27.750 61.500 L 27.500 60.500 L 27.000 60.000 L 26.750 59.500 L 26.000 57.750 L 25.750 57.000 L 25.750 56.250 L 25.000 54.750 L 24.750 54.000 L 24.500 51.750 L 23.750 49.500 L 23.500 47.750 L 23.250 45.500 L 23.250 36.000 L 23.500 34.250 L 24.000 32.500 L 24.000 30.750 L 24.750 29.000 L 25.000 26.750 L 25.750 24.500 L 26.750 22.750 L 27.000 21.500 L 27.750 20.500 L 27.750 20.000 L 28.000 19.500 L 28.750 18.250 L 29.250 17.500 L 29.750 16.750 L 30.500 15.750 L 31.750 14.250 L 32.250 13.750 L 32.750 13.250 L 33.250 12.750 L 35.250 11.000 L 36.250 10.250 L 37.000 9.750 L 38.000 9.250 L 39.500 8.750 L 40.000 8.250 L 40.500 8.000 L 41.250 7.750 L 44.250 7.000 L 45.750 6.750 L 48.500 6.500 L 51.000 6.500 L 53.750 6.750 L 56.000 7.000 L 57.750 7.750 L 58.750 7.750 L 59.750 8.000 L 60.500 8.250 L 62.250 9.000 L 64.500 10.250 L 65.750 11.000 L 67.000 12.000 L 69.000 13.750 L 70.750 15.500 L 72.000 17.000 L 72.750 18.000 L 73.250 18.750 L 73.750 19.500 L 74.750 21.250 L 75.000 22.500 L 75.750 23.500 L 76.000 24.000 L 76.000 24.750 L 76.250 25.500 L 76.500 26.000 L 77.000 26.500 L 79.000 26.500 L 79.500 26.250 L 80.000 25.750 L 80.000 24.500 L 79.500 19.500 L 79.500 2.750 L 78.750 2.000 L 77.500 2.000 L 77.000 2.250 L 76.250 3.000 L 74.500 5.000 L 73.750 5.250 L 71.500 5.250 L 70.250 5.000 L 69.250 4.750 L 67.250 4.000 L 66.250 4.000 L 65.250 3.750 L 63.500 3.000 L 60.250 2.500 L 59.250 2.000 L 58.250 1.750 L 56.500 1.500 L 54.750 1.500 L 53.000 1.000 Z" fill="#F2E6D8" fill-rule="evenodd"/>
</svg>